<svg width="140" height="34" viewBox="0 0 140 34" fill="none" xmlns="http://www.w3.org/2000/svg">
<path fill-rule="evenodd" clip-rule="evenodd" d="M54.4297 24.0715L52.5268 32.9187H48.15L55.3812 0.855537H60.5659L67.369 32.9187H62.9446L61.0893 24.0715H54.4297ZM60.5659 20.5035L59.0911 12.8433C58.663 10.6549 58.2348 7.8021 57.9026 5.51777H57.7115C57.3793 7.84888 56.902 10.7977 56.4754 12.8433L54.953 20.5035H60.5659ZM84.0753 0V26.9727C84.0753 28.7338 84.1705 31.3028 84.2648 32.9195H80.4121L80.1267 30.1134H79.984C79.2228 31.7301 77.4626 33.3008 75.1322 33.3008C70.8506 33.3008 68.234 28.6378 68.234 21.4558C68.234 13.2731 71.7061 9.41961 75.3701 9.41961C77.2247 9.41961 78.6995 10.2767 79.5082 12.0362H79.6034V0H84.0753ZM79.6026 18.6006C79.6026 18.1732 79.6026 17.6499 79.555 17.1726C79.3171 15.0801 78.1278 13.2723 76.5111 13.2723C73.7034 13.2723 72.7528 17.1726 72.7528 21.455C72.7528 26.2124 73.9897 29.5417 76.3684 29.5417C77.3674 29.5417 78.6987 29.0184 79.4599 26.2599C79.555 25.8793 79.6026 25.3077 79.6026 24.7859V18.6006ZM94.7271 33.3001C90.1132 33.3001 86.7823 29.3514 86.7823 21.4082C86.7823 12.9868 90.7301 9.41882 94.9642 9.41882C99.5312 9.41882 102.813 13.5102 102.813 21.3123C102.813 30.494 98.2935 33.3001 94.7739 33.3001H94.7271ZM94.869 29.7804C97.6275 29.7804 98.2467 24.8803 98.2467 21.3606C98.2467 17.8869 97.6283 12.9401 94.7747 12.9401C91.8243 12.9401 91.2542 17.8869 91.2542 21.3606C91.2542 25.2133 91.9202 29.7804 94.8222 29.7804H94.869ZM105.509 0H109.98V12.416H110.075C111.265 10.3235 112.882 9.41882 114.928 9.41882C118.876 9.41882 121.35 13.8907 121.35 20.9792C121.35 29.2563 117.972 33.3001 114.167 33.3001C111.883 33.3001 110.598 32.0623 109.599 30.0167H109.41L109.171 32.9187H105.319C105.414 31.3495 105.509 28.733 105.509 26.972V0ZM109.98 24.736C109.98 25.2609 110.028 25.7842 110.17 26.164C110.883 28.9716 112.264 29.5417 113.167 29.5417C115.831 29.5417 116.83 26.0221 116.83 21.2647C116.83 16.8403 115.784 13.2723 113.119 13.2723C111.644 13.2723 110.455 15.0325 110.122 16.6976C110.027 17.1733 109.979 17.7926 109.979 18.2675V24.736H109.98ZM127.949 22.2629C127.996 28.2097 130.564 29.6837 133.276 29.6837C134.894 29.6837 136.273 29.3039 137.272 28.8273L137.938 32.0624C136.559 32.776 134.465 33.1573 132.42 33.1573C126.617 33.1573 123.572 28.7806 123.572 21.6445C123.572 14.0803 127.044 9.41803 131.849 9.41803C136.654 9.41803 138.89 14.0327 138.89 19.8375C138.89 20.9785 138.841 21.6929 138.795 22.3105L127.949 22.2629ZM134.656 19.0763C134.703 14.985 133.276 12.7973 131.517 12.7973C129.185 12.7973 128.138 16.1751 127.996 19.0763H134.656Z" fill="#1E854A" fill-opacity="0.15"/>
<path fill-rule="evenodd" clip-rule="evenodd" d="M22.9486 0.941208H36.3065V32.9187L22.9486 0.941208ZM13.5385 0.941208H0.171024V32.9187L13.5385 0.941208ZM18.2443 12.726L26.7552 32.9187H21.178L18.6328 26.4875H12.403L18.2443 12.726Z" fill="#1E854A" fill-opacity="0.15"/>
<path fill-rule="evenodd" clip-rule="evenodd" d="M138.51 9.35939C138.644 9.36 138.777 9.38716 138.9 9.43929C139.024 9.49141 139.135 9.56747 139.229 9.66309C139.323 9.7587 139.397 9.87196 139.447 9.99634C139.497 10.1207 139.522 10.2538 139.52 10.3878C139.52 10.9682 139.072 11.4209 138.505 11.4209C137.943 11.4209 137.486 10.969 137.486 10.3878C137.485 10.2533 137.511 10.1199 137.562 9.99538C137.612 9.87085 137.687 9.75758 137.782 9.66205C137.877 9.56653 137.989 9.49062 138.114 9.43869C138.238 9.38675 138.371 9.3598 138.505 9.35939H138.51ZM138.505 9.51876C138.053 9.51876 137.682 9.90807 137.682 10.3878C137.682 10.877 138.053 11.2608 138.51 11.2608C138.967 11.2655 139.332 10.877 139.332 10.3925C139.332 9.90807 138.967 9.51876 138.51 9.51876H138.505ZM138.313 10.9872H138.131V9.83909C138.227 9.82561 138.319 9.81134 138.456 9.81134C138.63 9.81134 138.743 9.8486 138.812 9.89856C138.881 9.94851 138.918 10.0262 138.918 10.1364C138.918 10.2871 138.817 10.3791 138.693 10.4155V10.4242C138.794 10.4425 138.863 10.5345 138.885 10.7033C138.913 10.8817 138.94 10.9499 138.959 10.9872H138.767C138.739 10.9499 138.712 10.8453 138.689 10.6946C138.661 10.5479 138.589 10.4932 138.442 10.4932H138.314V10.9872H138.313ZM138.313 10.3513H138.446C138.596 10.3513 138.726 10.2966 138.726 10.1547C138.726 10.054 138.652 9.95327 138.446 9.95327C138.387 9.95327 138.345 9.95802 138.313 9.96278V10.3513ZM38.0675 0.941208C38.2015 0.941824 38.3341 0.968976 38.4576 1.0211C38.581 1.07323 38.693 1.14929 38.7869 1.2449C38.8808 1.34051 38.9548 1.45378 39.0048 1.57816C39.0547 1.70255 39.0794 1.83558 39.0777 1.96959C39.0777 2.54999 38.6297 3.00274 38.0628 3.00274C37.5006 3.00274 37.0431 2.55079 37.0431 1.96959C37.0424 1.83507 37.0682 1.70173 37.119 1.5772C37.1699 1.45267 37.2449 1.33939 37.3396 1.24387C37.4343 1.14834 37.5469 1.07244 37.671 1.0205C37.7951 0.968567 37.9282 0.941623 38.0628 0.941208H38.0675ZM38.0628 1.10058C37.61 1.10058 37.2397 1.48989 37.2397 1.96959C37.2397 2.45881 37.61 2.84257 38.0675 2.84257C38.5242 2.84733 38.8905 2.45881 38.8905 1.97435C38.8905 1.48989 38.5242 1.10058 38.0675 1.10058H38.0628ZM37.8709 2.56903H37.6877V1.42091C37.7952 1.40308 37.9039 1.39406 38.0128 1.39395C38.1864 1.39395 38.3006 1.42963 38.3688 1.48038C38.4378 1.53033 38.4743 1.60882 38.4743 1.71824C38.4743 1.86889 38.3736 1.96087 38.2499 1.99735V2.00606C38.3506 2.0243 38.4196 2.11628 38.4426 2.28596C38.4695 2.46436 38.4973 2.53255 38.5155 2.56982H38.3236C38.2959 2.53255 38.2681 2.42789 38.2459 2.27724C38.2182 2.13055 38.1452 2.07584 37.9985 2.07584H37.8709V2.56903ZM37.8709 1.93312H38.0033C38.1539 1.93312 38.2824 1.87841 38.2824 1.73648C38.2824 1.63578 38.2094 1.53509 38.0033 1.53509C37.9438 1.53509 37.9026 1.53985 37.8709 1.5446V1.93312Z" fill="#1E854A" fill-opacity="0.15"/>
</svg>
