<svg width="98" height="34" viewBox="0 0 98 34" fill="none" xmlns="http://www.w3.org/2000/svg">
<g clip-path="url(#clip0_8_140)">
<path d="M22.9616 17.6948C22.9215 13.481 26.4042 11.4565 26.5609 11.36C24.6006 8.49593 21.5557 8.10227 20.4711 8.05808C17.8801 7.79296 15.4137 9.58454 14.0961 9.58454C12.7786 9.58454 10.75 8.09423 8.60089 8.13842C5.77293 8.17859 3.1659 9.78137 1.70773 12.3121C-1.22467 17.3976 0.960572 24.9495 3.82469 29.083C5.22662 31.1036 6.88965 33.3812 9.08293 33.2969C11.1959 33.2125 11.9912 31.9311 14.538 31.9311C17.0848 31.9311 17.8038 33.2969 20.0332 33.2567C22.3028 33.2125 23.7409 31.1919 25.1308 29.1634C26.7296 26.8134 27.3924 24.5438 27.4325 24.4233C27.3803 24.4032 23.0098 22.7281 22.9616 17.6948Z" fill="#1E854A" fill-opacity="0.15"/>
<path d="M18.7719 5.31849C19.9368 3.90853 20.7201 1.95226 20.5072 0C18.8321 0.0682888 16.8036 1.11672 15.6025 2.52669C14.5259 3.77195 13.5819 5.76438 13.839 7.67647C15.6989 7.82108 17.611 6.72444 18.7719 5.31849ZM37.6517 21.8364L35.7236 27.6811H33.2451L39.5558 9.10652H42.448L48.7828 27.6811H46.22L44.2356 21.8364H37.6517ZM43.7415 19.9604L41.9258 14.6138C41.5121 13.4007 41.2389 12.3 40.9617 11.2235H40.9095C40.6324 12.3241 40.3311 13.4529 39.9736 14.5857L38.1579 19.9564L43.7415 19.9604ZM50.6628 18.6951C50.6628 16.9879 50.6106 15.606 50.5503 14.3407H52.7275L52.84 16.6303H52.8922C53.8844 15.0035 55.4551 14.0394 57.6323 14.0394C60.8579 14.0394 63.2802 16.7669 63.2802 20.8201C63.2802 25.6163 60.3598 27.9824 57.2185 27.9824C55.4551 27.9824 53.9125 27.2111 53.1131 25.8895H53.0609V33.1362H50.6628V18.6951ZM53.0569 22.2501C53.0569 22.6116 53.1091 22.937 53.1694 23.2423C53.6113 24.9214 55.0694 26.0823 56.8088 26.0823C59.3716 26.0823 60.8619 23.9895 60.8619 20.9285C60.8619 18.2532 59.456 15.9716 56.8931 15.9716C55.2422 15.9716 53.6996 17.1566 53.2256 18.9763C53.1413 19.2775 53.0609 19.6391 53.0609 19.9685L53.0569 22.2501ZM65.7868 18.6951C65.7868 16.9879 65.7345 15.606 65.6743 14.3407H67.8515L67.964 16.6303H68.0162C69.0084 15.0035 70.579 14.0394 72.7562 14.0394C75.9819 14.0394 78.4041 16.7669 78.4041 20.8201C78.4041 25.6163 75.4838 27.9824 72.3425 27.9824C70.579 27.9824 69.0365 27.2111 68.2371 25.8895H68.1849V33.1362H65.7868V18.6951ZM68.1849 22.2501C68.1849 22.6116 68.2371 22.937 68.2974 23.2423C68.7392 24.9214 70.1974 26.0823 71.9368 26.0823C74.4996 26.0823 75.9899 23.9895 75.9899 20.9285C75.9899 18.2532 74.584 15.9716 72.0211 15.9716C70.3701 15.9716 68.8276 17.1566 68.3536 18.9763C68.2693 19.2775 68.1889 19.6391 68.1889 19.9685L68.1849 22.2501ZM80.9147 8.11432H83.341V27.6771H80.9147V8.11432ZM88.2176 21.4507C88.2699 24.7286 90.3667 26.0823 92.789 26.0823C94.5243 26.0823 95.5727 25.781 96.4806 25.3954L96.8943 27.1308C96.0427 27.5164 94.5806 27.9583 92.4596 27.9583C88.3542 27.9583 85.8998 25.2588 85.8998 21.2338C85.8998 17.2088 88.2699 14.0394 92.1543 14.0394C96.5087 14.0394 97.6656 17.8676 97.6656 20.322C97.6656 20.8201 97.6134 21.2017 97.5812 21.4507H88.2176ZM95.3277 19.7154C95.3558 18.1729 94.693 15.7747 91.9655 15.7747C89.5111 15.7747 88.4386 18.0363 88.2458 19.7154H95.3277Z" fill="#1E854A" fill-opacity="0.15"/>
</g>
<defs>
<clipPath id="clip0_8_140">
<rect width="97.3518" height="33.3008" fill="white" transform="translate(0.317841)"/>
</clipPath>
</defs>
</svg>
