<svg width="14" height="14" viewBox="0 0 14 14" fill="none" xmlns="http://www.w3.org/2000/svg">
<path d="M0.72 7.704C1.792 7.704 2.112 8.184 2.112 8.824V12.44C2.112 13.336 2.704 13.944 3.696 13.944H4.592V13.048H3.792C3.376 13.048 3.12 12.76 3.12 12.344V8.76C3.12 7.976 2.832 7.48 2.08 7.224C2.832 7 3.12 6.504 3.12 5.72V2.136C3.12 1.72 3.376 1.432 3.792 1.432H4.592V0.535999H3.696C2.704 0.535999 2.112 1.144 2.112 2.04V5.656C2.112 6.296 1.792 6.76 0.72 6.76V7.704ZM10.0854 13.944C11.0614 13.944 11.6694 13.336 11.6694 12.44V8.824C11.6694 8.184 11.9894 7.704 13.0614 7.704V6.76C11.9894 6.76 11.6694 6.296 11.6694 5.656V2.04C11.6694 1.144 11.0614 0.535999 10.0854 0.535999H9.18938V1.432H9.97338C10.4054 1.432 10.6614 1.72 10.6614 2.136V5.72C10.6614 6.504 10.9334 7 11.6854 7.224C10.9334 7.48 10.6614 7.976 10.6614 8.76V12.344C10.6614 12.76 10.4054 13.048 9.97338 13.048H9.18938V13.944H10.0854Z" fill="#7E7E7E"/>
</svg>
