<svg width="12" height="8" viewBox="0 0 12 8" fill="none" xmlns="http://www.w3.org/2000/svg">
<path d="M4.49999 5.4001L9.39999 0.500097C9.58332 0.316764 9.81665 0.225098 10.1 0.225098C10.3833 0.225098 10.6167 0.316764 10.8 0.500097C10.9833 0.683431 11.075 0.916764 11.075 1.2001C11.075 1.48343 10.9833 1.71676 10.8 1.9001L5.19999 7.5001C4.99999 7.7001 4.76665 7.8001 4.49999 7.8001C4.23332 7.8001 3.99999 7.7001 3.79999 7.5001L1.19999 4.9001C1.01665 4.71676 0.924988 4.48343 0.924988 4.2001C0.924988 3.91676 1.01665 3.68343 1.19999 3.5001C1.38332 3.31676 1.61665 3.2251 1.89999 3.2251C2.18332 3.2251 2.41665 3.31676 2.59999 3.5001L4.49999 5.4001Z" fill="#121212"/>
</svg>
