<svg width="28" height="16" viewBox="0 0 28 16" fill="none" xmlns="http://www.w3.org/2000/svg">
<path d="M9.32499 13.525L3.79999 8.00002L9.32499 2.47502C9.45623 2.34536 9.56043 2.19094 9.63155 2.02071C9.70266 1.85048 9.73928 1.66783 9.73928 1.48335C9.73928 1.29886 9.70266 1.11621 9.63155 0.945985C9.56043 0.775758 9.45623 0.621339 9.32499 0.491682C9.19534 0.360442 9.04092 0.256244 8.87069 0.185128C8.70046 0.114012 8.51781 0.0773926 8.33333 0.0773926C8.14884 0.0773926 7.96619 0.114012 7.79596 0.185128C7.62574 0.256244 7.47132 0.360442 7.34166 0.491682L0.839161 6.99418C0.707831 7.12524 0.603639 7.28092 0.532549 7.4523C0.461458 7.62368 0.424866 7.80739 0.424866 7.99293C0.424866 8.17847 0.461458 8.36219 0.532549 8.53357C0.603639 8.70494 0.707831 8.86062 0.839161 8.99168L7.34166 15.5083C7.89416 16.0608 8.77249 16.0608 9.32499 15.5083C9.45623 15.3787 9.56043 15.2243 9.63155 15.054C9.70266 14.8838 9.73928 14.7012 9.73928 14.5167C9.73928 14.3322 9.70266 14.1495 9.63155 13.9793C9.56043 13.8091 9.45623 13.6547 9.32499 13.525ZM18.675 13.525L24.2 8.00002L18.675 2.47502C18.5438 2.34536 18.4396 2.19094 18.3684 2.02071C18.2973 1.85048 18.2607 1.66783 18.2607 1.48335C18.2607 1.29886 18.2973 1.11621 18.3684 0.945985C18.4396 0.775758 18.5438 0.621339 18.675 0.491682C18.8047 0.360442 18.9591 0.256244 19.1293 0.185128C19.2995 0.114012 19.4822 0.0773926 19.6667 0.0773926C19.8511 0.0773926 20.0338 0.114012 20.204 0.185128C20.3743 0.256244 20.5287 0.360442 20.6583 0.491682L27.1608 6.99418C27.7133 7.54668 27.7133 8.43918 27.1608 8.99168L20.6583 15.5083C20.5287 15.6396 20.3743 15.7438 20.204 15.8149C20.0338 15.886 19.8511 15.9226 19.6667 15.9226C19.4822 15.9226 19.2995 15.886 19.1293 15.8149C18.9591 15.7438 18.8047 15.6396 18.675 15.5083C18.5438 15.3787 18.4396 15.2243 18.3684 15.054C18.2973 14.8838 18.2607 14.7012 18.2607 14.5167C18.2607 14.3322 18.2973 14.1495 18.3684 13.9793C18.4396 13.8091 18.5438 13.6547 18.675 13.525Z" fill="#1E854A"/>
</svg>
