<svg width="30" height="30" viewBox="0 0 30 30" fill="none" xmlns="http://www.w3.org/2000/svg">
<path d="M15 0.833313C7.17575 0.833313 0.833334 7.17573 0.833334 15C0.833334 22.8242 7.17575 29.1666 15 29.1666C22.8243 29.1666 29.1667 22.8242 29.1667 15C29.1667 7.17573 22.8243 0.833313 15 0.833313ZM24.8005 9.33331H20.2459C20.0342 7.73929 19.7672 6.15308 19.4455 4.57756C21.695 5.54647 23.5727 7.21402 24.8005 9.33331ZM16.4365 3.76865C16.5328 4.26731 16.9848 6.65581 17.3503 9.33331H12.6498C13.0153 6.65581 13.4672 4.26731 13.5635 3.76865C14.0353 3.70773 14.5127 3.66665 15 3.66665C15.4873 3.66665 15.9648 3.70773 16.4365 3.76865ZM17.8333 15C17.8333 15.8471 17.7724 16.8218 17.6789 17.8333H12.3211C12.2276 16.8218 12.1667 15.8471 12.1667 15C12.1667 14.1528 12.2276 13.1781 12.3211 12.1666H17.6789C17.7724 13.1781 17.8333 14.1528 17.8333 15ZM10.5545 4.57756C10.2328 6.15308 9.96583 7.73929 9.75408 9.33331H5.1995C6.42734 7.21402 8.30501 5.54647 10.5545 4.57756ZM4.03925 12.1666H9.45233C9.38008 13.113 9.33333 14.0706 9.33333 15C9.33333 15.9293 9.38008 16.887 9.45375 17.8333H4.03925C3.80408 16.9252 3.66667 15.9803 3.66667 15C3.66667 14.0196 3.8055 13.0747 4.03925 12.1666ZM5.1995 20.6666H9.75408C10.0204 22.684 10.3491 24.4208 10.5545 25.4224C8.30501 24.4535 6.42734 22.7859 5.1995 20.6666ZM13.5635 26.2313C13.2112 24.3846 12.9065 22.5291 12.6498 20.6666H17.3503C17.0929 22.529 16.7882 24.3845 16.4365 26.2313C15.9648 26.2922 15.4873 26.3333 15 26.3333C14.5127 26.3333 14.0353 26.2922 13.5635 26.2313ZM19.4455 25.4224C19.6509 24.4208 19.9796 22.684 20.2459 20.6666H24.8005C23.5727 22.7859 21.695 24.4535 19.4455 25.4224ZM25.9608 17.8333H20.5477C20.6199 16.887 20.6667 15.9293 20.6667 15C20.6667 14.0706 20.6199 13.113 20.5463 12.1666H25.9593C26.1945 13.0747 26.3333 14.0196 26.3333 15C26.3333 15.9803 26.1959 16.9252 25.9608 17.8333Z" fill="#1E854A"/>
</svg>
