<svg width="103" height="34" viewBox="0 0 103 34" fill="none" xmlns="http://www.w3.org/2000/svg">
<g clip-path="url(#clip0_8_157)">
<path d="M13.2221 0.00379944H14.1293C17.2791 0.0722723 20.3775 1.33902 22.6029 3.58151C21.7812 4.4203 20.9424 5.22486 20.1378 6.06365C18.8882 4.93385 17.3818 4.06082 15.7385 3.75269C13.3077 3.23914 10.6886 3.70133 8.65151 5.08791C6.42614 6.54296 4.91974 9.00798 4.59449 11.6442C4.23501 14.2462 4.97109 16.9851 6.6658 19.005C8.29203 20.9736 10.7742 22.2061 13.3419 22.2917C15.7385 22.4287 18.2377 21.6926 19.9838 20.015C21.3532 18.8338 21.9866 17.0364 22.192 15.2904C19.3504 15.2904 16.5088 15.3075 13.6672 15.2904V11.764H25.6328C26.2491 15.5471 25.3589 19.8096 22.483 22.5143C20.5658 24.4315 17.9125 25.5613 15.2078 25.7838C12.5887 26.0406 9.88403 25.5442 7.55595 24.2774C4.76567 22.7881 2.5403 20.2718 1.44474 17.3103C0.417642 14.5885 0.400524 11.5072 1.35915 8.76833C2.23218 6.26907 3.90976 4.06082 6.06666 2.52018C8.13797 0.996656 10.6543 0.157863 13.2221 0.00379944Z" fill="#1E854A" fill-opacity="0.15"/>
<path d="M81.8664 0.893082H85.5297V25.3379C84.3143 25.3379 83.0818 25.355 81.8664 25.3208C81.8835 17.1896 81.8664 9.04136 81.8664 0.893082Z" fill="#1E854A" fill-opacity="0.15"/>
<path d="M33.7813 9.36663C36.0409 8.93868 38.4888 9.41799 40.3547 10.7703C42.0494 11.9686 43.2306 13.8516 43.5901 15.9058C44.0523 18.2852 43.4702 20.8872 41.9296 22.7702C40.2691 24.8757 37.5473 26.0055 34.894 25.8343C32.4632 25.6974 30.1009 24.482 28.663 22.4963C27.0367 20.3052 26.643 17.2924 27.5332 14.7246C28.4233 11.9686 30.9397 9.86306 33.7813 9.36663ZM34.2949 12.6191C33.3705 12.8587 32.5146 13.3894 31.8983 14.1426C30.2378 16.1283 30.3405 19.3637 32.1722 21.2124C33.2164 22.2738 34.7913 22.7702 36.2463 22.4792C37.5987 22.2395 38.7798 21.3323 39.4303 20.134C40.5601 18.0969 40.2349 15.2895 38.506 13.6975C37.3933 12.6704 35.767 12.2425 34.2949 12.6191Z" fill="#1E854A" fill-opacity="0.15"/>
<path d="M51.9266 9.36663C54.5114 8.8702 57.3359 9.58916 59.2703 11.4037C62.42 14.2282 62.7624 19.5177 60.0748 22.7702C58.4486 24.8244 55.8124 25.9542 53.2104 25.8344C50.7283 25.7659 48.2804 24.5334 46.8082 22.4963C45.1477 20.2538 44.7883 17.1725 45.7298 14.5535C46.6713 11.883 49.1363 9.84594 51.9266 9.36663ZM52.4401 12.6191C51.5157 12.8587 50.6598 13.3894 50.0436 14.1255C48.4002 16.077 48.4687 19.261 50.2319 21.1269C51.2761 22.2395 52.9023 22.7873 54.4087 22.4792C55.7439 22.2224 56.9422 21.3323 57.5927 20.134C58.7054 18.0798 58.3801 15.2724 56.6341 13.6804C55.5214 12.6533 53.8952 12.2425 52.4401 12.6191Z" fill="#1E854A" fill-opacity="0.15"/>
<path d="M67.3159 10.3595C69.2845 9.12696 71.9036 8.78459 74.0262 9.84592C74.6939 10.1369 75.2416 10.6334 75.7723 11.1298C75.7894 10.6676 75.7723 10.1883 75.7894 9.70898C76.9363 9.72609 78.0833 9.70898 79.2473 9.72609V24.8244C79.2302 27.1011 78.6482 29.5148 77.0048 31.1752C75.2074 33.0069 72.4514 33.5718 69.9692 33.1952C67.3159 32.8015 65.0049 30.8671 63.9778 28.4192C65.0049 27.9228 66.0834 27.5291 67.1447 27.0669C67.7438 28.4706 68.9592 29.6688 70.4828 29.9427C72.0063 30.2166 73.7695 29.84 74.7623 28.5733C75.8237 27.2723 75.8237 25.492 75.7723 23.9C74.9849 24.6703 74.0776 25.355 72.982 25.6118C70.6026 26.2794 67.9835 25.4578 66.1519 23.8486C64.3031 22.2395 63.2075 19.7574 63.3102 17.2924C63.3616 14.5021 64.9365 11.8145 67.3159 10.3595ZM70.8594 12.5506C69.8152 12.7218 68.8394 13.3038 68.1718 14.1084C66.5627 16.0256 66.5627 19.0898 68.1889 20.9728C69.1133 22.0855 70.6026 22.7017 72.0405 22.5476C73.3929 22.4107 74.6425 21.5548 75.3101 20.3736C76.4399 18.3708 76.2516 15.649 74.7281 13.9029C73.7866 12.8245 72.2802 12.2938 70.8594 12.5506Z" fill="#1E854A" fill-opacity="0.15"/>
<path d="M89.9291 11.2325C91.9833 9.31528 95.1502 8.66478 97.7864 9.67476C100.286 10.6163 101.878 12.9957 102.682 15.4436C98.9676 16.9843 95.27 18.5078 91.5553 20.0484C92.0689 21.0242 92.8563 21.9143 93.9177 22.2738C95.407 22.8045 97.1873 22.6162 98.4369 21.6233C98.9333 21.2467 99.327 20.7503 99.7036 20.271C100.645 20.9043 101.587 21.5206 102.528 22.154C101.193 24.1568 98.9504 25.5605 96.5368 25.783C93.8663 26.1083 91.0247 25.0812 89.2957 22.9928C86.4541 19.7061 86.728 14.194 89.9291 11.2325ZM91.7608 14.3994C91.1787 15.2382 90.9391 16.2653 90.9562 17.2753C93.4384 16.2482 95.9205 15.2211 98.4027 14.1769C97.9918 13.2182 96.999 12.6362 95.989 12.4822C94.3627 12.1911 92.668 13.0642 91.7608 14.3994Z" fill="#1E854A" fill-opacity="0.15"/>
</g>
<defs>
<clipPath id="clip0_8_157">
<rect width="102.025" height="33.3008" fill="white" transform="translate(0.657471)"/>
</clipPath>
</defs>
</svg>
