<svg width="14" height="14" viewBox="0 0 14 14" fill="none" xmlns="http://www.w3.org/2000/svg">
<mask id="mask0_16_133" style="mask-type:luminance" maskUnits="userSpaceOnUse" x="0" y="0" width="14" height="14">
<path d="M13.1333 0.676147H0.333313V13.4762H13.1333V0.676147Z" fill="white"/>
</mask>
<g mask="url(#mask0_16_133)">
<path d="M11.1573 7.07511L5.55725 13.0751C5.52098 13.1162 5.47634 13.149 5.42628 13.1715C5.37629 13.1939 5.32205 13.2053 5.26726 13.2051C5.20294 13.2045 5.13965 13.1891 5.08226 13.1601C5.00607 13.119 4.94511 13.0546 4.90822 12.9764C4.87133 12.8981 4.8605 12.81 4.87723 12.7251L5.60724 9.06012L2.72724 7.98012C2.66573 7.95626 2.61087 7.91786 2.56733 7.86828C2.52379 7.81863 2.49293 7.75925 2.47723 7.69514C2.46207 7.63075 2.46324 7.56362 2.48073 7.49985C2.49814 7.43607 2.5314 7.37772 2.57727 7.33013L8.17723 1.33012C8.23702 1.26886 8.31485 1.22839 8.39933 1.21466C8.48381 1.20092 8.57049 1.21465 8.6466 1.25382C8.72271 1.29299 8.78422 1.35554 8.82214 1.43227C8.86006 1.509 8.87241 1.59587 8.85725 1.68012L8.12724 5.35013L11.0072 6.43013C11.0691 6.45255 11.1244 6.49013 11.168 6.5393C11.2117 6.58853 11.2423 6.64785 11.2572 6.71196C11.2721 6.77601 11.2708 6.84279 11.2533 6.90622C11.2359 6.96965 11.2028 7.02766 11.1573 7.07511Z" fill="#1E854A"/>
</g>
</svg>
