<svg width="18" height="18" viewBox="0 0 18 18" fill="none" xmlns="http://www.w3.org/2000/svg">
<path d="M16.5 6.75001H12.9075L9.6225 1.83001C9.48 1.62001 9.24 1.51501 9 1.51501C8.76 1.51501 8.52 1.62001 8.3775 1.83751L5.0925 6.75001H1.5C1.0875 6.75001 0.75 7.08751 0.75 7.50001C0.75 7.56751 0.7575 7.63501 0.78 7.70251L2.685 14.655C2.8575 15.285 3.435 15.75 4.125 15.75H13.875C14.565 15.75 15.1425 15.285 15.3225 14.655L17.2275 7.70251L17.25 7.50001C17.25 7.08751 16.9125 6.75001 16.5 6.75001ZM9 3.60001L11.1 6.75001H6.9L9 3.60001ZM13.875 14.25L4.1325 14.2575L2.4825 8.25001H15.525L13.875 14.25ZM9 9.75001C8.175 9.75001 7.5 10.425 7.5 11.25C7.5 12.075 8.175 12.75 9 12.75C9.825 12.75 10.5 12.075 10.5 11.25C10.5 10.425 9.825 9.75001 9 9.75001Z" fill="#121212"/>
<circle cx="14.5" cy="13.5" r="3.5" fill="#1E854A"/>
</svg>
