<svg width="132" height="34" viewBox="0 0 132 34" fill="none" xmlns="http://www.w3.org/2000/svg">
<g clip-path="url(#clip0_8_147)">
<path fill-rule="evenodd" clip-rule="evenodd" d="M42.1242 26.2206L43.7666 22.4041C45.5406 23.7307 47.9042 24.4203 50.2362 24.4203C51.9576 24.4203 53.0472 23.757 53.0472 22.7515C53.0209 19.9405 42.7348 22.1409 42.6559 15.0922C42.6295 11.5126 45.8091 8.75423 50.3152 8.75423C52.9946 8.75423 55.6688 9.41751 57.5796 10.9283L56.0425 14.8238C54.2948 13.7078 52.1207 12.9129 50.0519 12.9129C48.6464 12.9129 47.7199 13.5762 47.7199 14.4237C47.7463 17.1821 58.1113 15.6713 58.2166 22.4041C58.2166 26.0627 55.116 28.6368 50.6626 28.6368C47.3988 28.6316 44.4035 27.863 42.1242 26.2206ZM105.194 21.0249C104.372 22.4567 102.835 23.4359 101.056 23.4359C98.4292 23.4359 96.313 21.3144 96.313 18.6929C96.313 16.0714 98.4345 13.9499 101.056 13.9499C102.83 13.9499 104.372 14.929 105.194 16.3609L109.726 13.8446C108.031 10.823 104.767 8.75423 101.056 8.75423C95.5655 8.75423 91.1121 13.2077 91.1121 18.6982C91.1121 24.1886 95.5655 28.6421 101.056 28.6421C104.794 28.6421 108.031 26.5996 109.726 23.5517L105.194 21.0249ZM60.496 0.505356H66.1707V28.2631H60.496V0.505356ZM111.953 0.505356V28.2631H117.627V19.9352L124.36 28.2631H131.625L123.06 18.3718L130.988 9.14378H124.039L117.622 16.8031V0.505356H111.953Z" fill="#1E854A" fill-opacity="0.15"/>
<path d="M83.0317 21.0775C82.2105 22.4304 80.5154 23.4359 78.6046 23.4359C75.9778 23.4359 73.8616 21.3144 73.8616 18.6929C73.8616 16.0714 75.983 13.9499 78.6046 13.9499C80.5154 13.9499 82.2105 15.008 83.0317 16.3872V21.0775ZM83.0317 9.14904V11.4021C82.1052 9.83864 79.7995 8.74896 77.3833 8.74896C72.3982 8.74896 68.4764 13.1498 68.4764 18.6666C68.4764 24.1834 72.3982 28.6368 77.3833 28.6368C79.7942 28.6368 82.0999 27.5524 83.0317 25.9837V28.2368H88.7064V9.14904H83.0317Z" fill="#1E854A" fill-opacity="0.15"/>
<path fill-rule="evenodd" clip-rule="evenodd" d="M7.04931 21.0512C7.04931 22.9884 5.48586 24.5519 3.54866 24.5519C1.61146 24.5519 0.0480194 22.9832 0.0480194 21.0512C0.0480194 19.1193 1.61146 17.5506 3.54866 17.5506H7.04931V21.0512ZM8.797 21.0512C8.797 19.114 10.3604 17.5506 12.2976 17.5506C14.2348 17.5506 15.7983 19.114 15.7983 21.0512V29.8002C15.7983 31.7374 14.2348 33.3008 12.2976 33.3008C10.3604 33.3008 8.797 31.7374 8.797 29.8002V21.0512Z" fill="#1E854A" fill-opacity="0.15"/>
<path fill-rule="evenodd" clip-rule="evenodd" d="M12.2976 7.00129C10.3604 7.00129 8.79699 5.43784 8.79699 3.50064C8.79699 1.56344 10.3604 0 12.2976 0C14.2348 0 15.7983 1.56344 15.7983 3.50064V7.00129H12.2976ZM12.2976 8.7753C14.2348 8.7753 15.7983 10.3387 15.7983 12.2759C15.7983 14.2131 14.2348 15.7766 12.2976 15.7766H3.52234C1.58514 15.7766 0.021698 14.2079 0.021698 12.2759C0.021698 10.344 1.58514 8.7753 3.52234 8.7753H12.2976Z" fill="#1E854A" fill-opacity="0.15"/>
<path fill-rule="evenodd" clip-rule="evenodd" d="M26.3213 12.2759C26.3213 10.3387 27.8847 8.7753 29.8219 8.7753C31.7591 8.7753 33.3226 10.3387 33.3226 12.2759C33.3226 14.2131 31.7591 15.7766 29.8219 15.7766H26.3213V12.2759ZM24.5736 12.2759C24.5736 14.2131 23.0101 15.7766 21.0729 15.7766C19.1357 15.7766 17.5723 14.2131 17.5723 12.2759V3.50064C17.5723 1.56344 19.1357 0 21.0729 0C23.0101 0 24.5736 1.56344 24.5736 3.50064V12.2759Z" fill="#1E854A" fill-opacity="0.15"/>
<path fill-rule="evenodd" clip-rule="evenodd" d="M21.0729 26.2996C23.0101 26.2996 24.5736 27.863 24.5736 29.8002C24.5736 31.7374 23.0101 33.3008 21.0729 33.3008C19.1357 33.3008 17.5723 31.7374 17.5723 29.8002V26.2996H21.0729ZM21.0729 24.5519C19.1357 24.5519 17.5723 22.9884 17.5723 21.0512C17.5723 19.114 19.1357 17.5506 21.0729 17.5506H29.8482C31.7854 17.5506 33.3489 19.114 33.3489 21.0512C33.3489 22.9884 31.7854 24.5519 29.8482 24.5519H21.0729Z" fill="#1E854A" fill-opacity="0.15"/>
</g>
<defs>
<clipPath id="clip0_8_147">
<rect width="131.603" height="33.3008" fill="white" transform="translate(0.021698)"/>
</clipPath>
</defs>
</svg>
