<svg width="112" height="34" viewBox="0 0 112 34" fill="none" xmlns="http://www.w3.org/2000/svg">
<g clip-path="url(#clip0_8_155)">
<path d="M16.7766 1.52588e-05C7.58105 1.52588e-05 0.126251 7.45461 0.126251 16.6501C0.126251 25.8466 7.58105 33.3008 16.7766 33.3008C25.9725 33.3008 33.4269 25.8467 33.4269 16.6501C33.4269 7.4552 25.9729 0.000809956 16.7764 0.000809956L16.7766 1.52588e-05ZM24.4123 24.0143C24.1133 24.5048 23.4742 24.6585 22.9853 24.3596C19.0754 21.9699 14.154 21.4301 8.35825 22.7541C7.79975 22.8822 7.24303 22.532 7.1158 21.9737C6.98794 21.4152 7.33648 20.8585 7.89638 20.7313C14.2389 19.2812 19.6794 19.9053 24.0681 22.5871C24.5572 22.8873 24.7123 23.5256 24.4121 24.0147L24.4123 24.0143ZM26.4503 19.4812C26.0737 20.0922 25.2748 20.2839 24.6646 19.9087C20.19 17.1581 13.3669 16.3614 8.07314 17.9684C7.38659 18.1757 6.66147 17.7888 6.4531 17.1035C6.24632 16.4169 6.63344 15.6932 7.31879 15.4844C13.3657 13.6497 20.8829 14.5384 26.0226 17.6968C26.633 18.0725 26.8258 18.8718 26.4501 19.4814L26.4503 19.4812ZM26.6252 14.7603C21.2581 11.5729 12.4052 11.2798 7.2816 12.8349C6.45886 13.0844 5.58879 12.6199 5.33947 11.7972C5.09014 10.974 5.5542 10.1046 6.37754 9.85444C12.259 8.06899 22.0363 8.41394 28.2146 12.0817C28.9547 12.5209 29.1975 13.4767 28.7588 14.2157C28.3214 14.9557 27.3631 15.1997 26.6254 14.7603H26.6252ZM45.4263 15.3711C42.5514 14.6855 42.0396 14.2044 42.0396 13.1933C42.0396 12.2382 42.9389 11.5954 44.2762 11.5954C45.5726 11.5954 46.858 12.0835 48.2057 13.0884C48.2464 13.1188 48.2975 13.1309 48.3478 13.123C48.3981 13.1154 48.4427 13.0878 48.4721 13.0462L49.8758 11.0675C49.9335 10.986 49.9178 10.8736 49.84 10.8114C48.2361 9.52439 46.4299 8.89868 44.3188 8.89868C41.2147 8.89868 39.0465 10.7615 39.0465 13.4268C39.0465 16.2849 40.9169 17.2969 44.149 18.0781C46.9 18.7118 47.3643 19.2426 47.3643 20.1916C47.3643 21.2432 46.4254 21.897 44.9145 21.897C43.2364 21.897 41.8677 21.3317 40.3365 20.0057C40.2985 19.9729 40.2464 19.958 40.1983 19.9608C40.1476 19.965 40.1013 19.9884 40.0691 20.0272L38.4952 21.9004C38.4292 21.9781 38.4375 22.0942 38.5139 22.1614C40.2954 23.7518 42.4864 24.5919 44.8509 24.5919C48.1957 24.5919 50.3572 22.7643 50.3572 19.9356C50.3631 17.5476 48.9336 16.2255 45.4323 15.3737L45.4263 15.3711ZM57.9245 12.5358C56.4747 12.5358 55.2855 13.1068 54.3049 14.2769V12.9599C54.3049 12.8559 54.2206 12.7712 54.1168 12.7712H51.5426C51.4386 12.7712 51.3545 12.8559 51.3545 12.9599V27.5939C51.3545 27.6979 51.4386 27.7826 51.5426 27.7826H54.1168C54.2206 27.7826 54.3049 27.6979 54.3049 27.5939V22.9746C55.2857 24.0753 56.4751 24.6131 57.9245 24.6131C60.6184 24.6131 63.3455 22.5394 63.3455 18.5752C63.3495 14.61 60.6216 12.5356 57.9275 12.5356L57.9245 12.5358ZM60.3522 18.5752C60.3522 20.5939 59.1087 22.0025 57.3282 22.0025C55.568 22.0025 54.2402 20.5298 54.2402 18.5752C54.2402 16.6207 55.568 15.1478 57.3282 15.1478C59.0799 15.1476 60.3524 16.5887 60.3524 18.575L60.3522 18.5752ZM70.3353 12.5358C66.8659 12.5358 64.148 15.2072 64.148 18.6183C64.148 21.9922 66.8472 24.6356 70.2927 24.6356C73.7744 24.6356 76.5007 21.9731 76.5007 18.5752C76.5007 15.1889 73.7926 12.5362 70.335 12.5362L70.3353 12.5358ZM70.3353 22.0226C68.4899 22.0226 67.0987 20.54 67.0987 18.5742C67.0987 16.6 68.4418 15.1675 70.2927 15.1675C72.1499 15.1675 73.5505 16.6501 73.5505 18.6173C73.5505 20.5911 72.1984 22.0226 70.3354 22.0226H70.3353ZM83.9091 12.7712H81.0764V9.87513C81.0764 9.77134 80.9925 9.68664 80.8886 9.68664H78.3147C78.2106 9.68664 78.1261 9.77134 78.1261 9.87513V12.7712H76.8884C76.7848 12.7712 76.7009 12.8559 76.7009 12.9599V15.1723C76.7009 15.276 76.7848 15.3609 76.8884 15.3609H78.1261V21.0854C78.1261 23.3987 79.2775 24.5716 81.5483 24.5716C82.4716 24.5716 83.2377 24.3809 83.9596 23.9715C84.0183 23.9387 84.0547 23.8755 84.0547 23.8083V21.7015C84.0547 21.6365 84.0209 21.5751 83.9652 21.5411C83.9091 21.5059 83.8393 21.5041 83.7819 21.5325C83.286 21.7821 82.8066 21.8972 82.2708 21.8972C81.4449 21.8972 81.0764 21.5222 81.0764 20.6817V15.362H83.9091C84.0131 15.362 84.0968 15.2772 84.0968 15.1733V12.9611C84.1008 12.8571 84.0173 12.7724 83.9119 12.7724L83.9091 12.7712ZM93.7789 12.7826V12.4269C93.7789 11.3804 94.1801 10.9138 95.08 10.9138C95.6166 10.9138 96.0477 11.0204 96.5304 11.1814C96.5899 11.2001 96.6519 11.1908 96.7002 11.1552C96.7499 11.1196 96.778 11.0625 96.778 11.0021V8.83287C96.778 8.74995 96.7247 8.67659 96.6448 8.65213C96.1348 8.50042 95.4822 8.34474 94.5052 8.34474C92.1276 8.34474 90.8708 9.68364 90.8708 12.2153V12.7601H89.6341C89.5303 12.7601 89.4453 12.8448 89.4453 12.9486V15.1722C89.4453 15.276 89.5303 15.3609 89.6341 15.3609H90.8708V24.1906C90.8708 24.2946 90.9547 24.3793 91.0585 24.3793H93.6328C93.7367 24.3793 93.8214 24.2946 93.8214 24.1906V15.3615H96.2248L99.9065 24.189C99.4886 25.1166 99.0776 25.3011 98.5165 25.3011C98.063 25.3011 97.5854 25.1657 97.0971 24.8984C97.0512 24.8732 96.9967 24.869 96.9472 24.8843C96.8981 24.9016 96.8567 24.9382 96.8358 24.9859L95.9634 26.9C95.9218 26.9905 95.9574 27.0967 96.0445 27.1436C96.9553 27.6369 97.7775 27.8474 98.7937 27.8474C100.694 27.8474 101.745 26.9621 102.671 24.5801L107.137 13.0402C107.16 12.9822 107.153 12.9166 107.117 12.8651C107.082 12.814 107.025 12.7832 106.962 12.7832H104.282C104.202 12.7832 104.13 12.8342 104.104 12.9096L101.359 20.7509L98.3521 12.9044C98.3247 12.8315 98.2543 12.7831 98.1763 12.7831H93.7783L93.7789 12.7826ZM88.0566 12.7712H85.4824C85.3784 12.7712 85.2938 12.8559 85.2938 12.9599V24.1906C85.2938 24.2946 85.3784 24.3793 85.4824 24.3793H88.0566C88.1604 24.3793 88.2453 24.2946 88.2453 24.1906V12.9607C88.2454 12.9359 88.2405 12.9113 88.2311 12.8884C88.2216 12.8654 88.2077 12.8446 88.1901 12.8271C88.1726 12.8096 88.1517 12.7957 88.1288 12.7862C88.1058 12.7768 88.0812 12.7719 88.0564 12.772L88.0566 12.7712ZM86.7841 7.65762C85.7644 7.65762 84.9369 8.48313 84.9369 9.50292C84.9369 10.5233 85.7646 11.3498 86.7842 11.3498C87.8036 11.3498 88.6303 10.5233 88.6303 9.50292C88.6303 8.48334 87.8031 7.65762 86.7852 7.65762H86.7841ZM109.335 16.3821C108.316 16.3821 107.524 15.5639 107.524 14.5704C107.524 13.5769 108.327 12.7494 109.345 12.7494C110.363 12.7494 111.156 13.5673 111.156 14.5601C111.156 15.5536 110.353 16.3821 109.335 16.3821H109.335ZM109.345 12.9295C108.417 12.9295 107.715 13.6671 107.715 14.5704C107.715 15.4733 108.412 16.201 109.336 16.201C110.263 16.201 110.966 15.4639 110.966 14.5601C110.966 13.6572 110.268 12.9295 109.346 12.9295H109.345ZM109.747 14.7464L110.259 15.4637H109.827L109.366 14.8056H108.969V15.4637H108.607V13.5622H109.455C109.897 13.5622 110.188 13.7882 110.188 14.1688C110.19 14.4805 110.009 14.671 109.748 14.7464H109.747V14.7464ZM109.44 13.8884H108.969V14.4899H109.44C109.676 14.4899 109.816 14.3748 109.816 14.1889C109.816 13.9932 109.675 13.8884 109.441 13.8884H109.44V13.8884Z" fill="#1E854A" fill-opacity="0.15"/>
</g>
<defs>
<clipPath id="clip0_8_155">
<rect width="111.03" height="33.3008" fill="white" transform="translate(0.126251)"/>
</clipPath>
</defs>
</svg>
