<svg width="24" height="31" viewBox="0 0 24 31" fill="none" xmlns="http://www.w3.org/2000/svg">
<path d="M20.5 10.3334H19.0833V7.50002C19.0833 3.59002 15.91 0.416687 12 0.416687C8.08999 0.416687 4.91666 3.59002 4.91666 7.50002V10.3334H3.49999C1.94166 10.3334 0.666656 11.6084 0.666656 13.1667V27.3334C0.666656 28.8917 1.94166 30.1667 3.49999 30.1667H20.5C22.0583 30.1667 23.3333 28.8917 23.3333 27.3334V13.1667C23.3333 11.6084 22.0583 10.3334 20.5 10.3334ZM12 23.0834C10.4417 23.0834 9.16666 21.8084 9.16666 20.25C9.16666 18.6917 10.4417 17.4167 12 17.4167C13.5583 17.4167 14.8333 18.6917 14.8333 20.25C14.8333 21.8084 13.5583 23.0834 12 23.0834ZM7.74999 10.3334V7.50002C7.74999 5.14835 9.64832 3.25002 12 3.25002C14.3517 3.25002 16.25 5.14835 16.25 7.50002V10.3334H7.74999Z" fill="#1E854A"/>
</svg>
