<svg width="22" height="16" viewBox="0 0 22 16" fill="none" xmlns="http://www.w3.org/2000/svg">
<path d="M10 16H5.5C3.98333 16 2.68767 15.475 1.613 14.425C0.537667 13.375 0 12.0917 0 10.575C0 9.275 0.391667 8.11667 1.175 7.1C1.95833 6.08333 2.98333 5.43333 4.25 5.15C4.66667 3.61667 5.5 2.375 6.75 1.425C8 0.475 9.41667 0 11 0C12.95 0 14.604 0.679 15.962 2.037C17.3207 3.39567 18 5.05 18 7C19.15 7.13333 20.1043 7.629 20.863 8.487C21.621 9.34567 22 10.35 22 11.5C22 12.75 21.5627 13.8127 20.688 14.688C19.8127 15.5627 18.75 16 17.5 16H12V8.85L13.6 10.4L15 9L11 5L7 9L8.4 10.4L10 8.85V16Z" fill="#F5F4F7"/>
</svg>
